<svg xmlns="http://www.w3.org/2000/svg" version="1.1" xmlns:xlink="http://www.w3.org/1999/xlink" xmlns:svgjs="http://svgjs.com/svgjs" width="1440" height="1000" preserveAspectRatio="none" viewBox="0 0 1440 1000"><g mask="url(&quot;#SvgjsMask1029&quot;)" fill="none"><rect width="1440" height="1000" x="0" y="0" fill="#0e2a47"></rect><path d="M138.19 268.7 a171.08 171.08 0 1 0 342.16 0 a171.08 171.08 0 1 0 -342.16 0z" fill="rgba(126, 5, 205, 0.4)" class="triangle-float3"></path><path d="M1065.586,1175.584C1140.235,1175.608,1209.082,1140.908,1250.908,1079.077C1299.121,1007.805,1330.112,918.55,1291.471,841.666C1249.552,758.259,1158.885,707.29,1065.586,710.338C976.825,713.238,903.75,776.271,863.895,855.634C827.991,927.13,837.806,1011.278,880.47,1078.958C920.254,1142.068,990.983,1175.56,1065.586,1175.584" fill="rgba(126, 5, 205, 0.4)" class="triangle-float2"></path><path d="M1241.09 137.54 a190.36 190.36 0 1 0 380.72 0 a190.36 190.36 0 1 0 -380.72 0z" fill="rgba(126, 5, 205, 0.4)" class="triangle-float2"></path><path d="M945.13 456.67 a315.53 315.53 0 1 0 631.06 0 a315.53 315.53 0 1 0 -631.06 0z" fill="rgba(126, 5, 205, 0.4)" class="triangle-float2"></path><path d="M241.77 422.44 a308.51 308.51 0 1 0 617.02 0 a308.51 308.51 0 1 0 -617.02 0z" fill="rgba(126, 5, 205, 0.4)" class="triangle-float3"></path><path d="M543.137,968.405C580.75,965.672,606.043,934.792,625.662,902.585C646.447,868.465,669.618,828.048,649.753,793.385C629.83,758.621,583.188,757.432,543.137,758.585C505.747,759.662,467.554,768.214,446.65,799.233C423.193,834.04,416.052,879.847,436.847,916.307C457.799,953.042,500.958,971.47,543.137,968.405" fill="rgba(126, 5, 205, 0.4)" class="triangle-float2"></path><path d="M1135.582,221.498C1189.646,221.605,1244.61,201.649,1271.348,154.66C1297.846,108.091,1284.29,52.27,1258.644,5.226C1231.57,-44.437,1192.09,-91.894,1135.582,-94.381C1075.562,-97.022,1020.865,-59.303,992.213,-6.498C964.806,44.012,970.151,105.478,1000.742,154.125C1029.409,199.713,1081.73,221.392,1135.582,221.498" fill="rgba(126, 5, 205, 0.4)" class="triangle-float2"></path><path d="M759.45 6.24 a219.67 219.67 0 1 0 439.34 0 a219.67 219.67 0 1 0 -439.34 0z" fill="rgba(126, 5, 205, 0.4)" class="triangle-float2"></path><path d="M145.717,431.739C238.589,438.323,342.562,418.049,388.521,337.078C434.113,256.754,389.642,162.712,343.992,82.421C297.597,0.818,239.264,-82.202,145.717,-89.981C40.011,-98.771,-73.493,-51.781,-119.28,43.899C-161.398,131.91,-99.021,225.854,-43.977,306.415C1.847,373.481,64.694,425.995,145.717,431.739" fill="rgba(126, 5, 205, 0.4)" class="triangle-float3"></path><path d="M1039.56 562.69 a296.17 296.17 0 1 0 592.34 0 a296.17 296.17 0 1 0 -592.34 0z" fill="rgba(126, 5, 205, 0.4)" class="triangle-float1"></path><path d="M1437.579,1091.892C1524.63,1090.398,1604.409,1038.157,1642.373,959.806C1676.415,889.55,1643.195,812.97,1605.983,744.34C1566.162,670.9,1521.112,583.301,1437.579,582.111C1353.007,580.906,1302.239,665.768,1260.654,739.42C1220.044,811.344,1183.181,893.233,1220.235,967.052C1260.407,1047.083,1348.045,1093.429,1437.579,1091.892" fill="rgba(126, 5, 205, 0.4)" class="triangle-float3"></path><path d="M507.974,332.508C564.615,332.714,617.619,302.176,644.852,252.511C671.128,204.59,666.075,145.163,635.564,99.821C608.179,59.124,556.941,46.189,507.974,49.098C464.402,51.686,428.43,77.266,404.191,113.566C376.122,155.602,351.159,205.848,372.81,251.522C396.923,302.39,451.68,332.303,507.974,332.508" fill="rgba(126, 5, 205, 0.4)" class="triangle-float1"></path><path d="M-282.35 574.48 a299.74 299.74 0 1 0 599.48 0 a299.74 299.74 0 1 0 -599.48 0z" fill="rgba(126, 5, 205, 0.4)" class="triangle-float2"></path><path d="M1134.688,511.438C1159.012,511.214,1179.95,495.476,1191.659,474.155C1202.919,453.651,1202.387,429.182,1191.117,408.684C1179.393,387.361,1159.02,370.886,1134.688,370.538C1109.816,370.182,1087.575,385.341,1075.391,407.028C1063.457,428.268,1063.841,454.035,1075.873,475.22C1088.06,496.678,1110.012,511.665,1134.688,511.438" fill="rgba(126, 5, 205, 0.4)" class="triangle-float3"></path><path d="M318.46 391.56 a288.68 288.68 0 1 0 577.36 0 a288.68 288.68 0 1 0 -577.36 0z" fill="rgba(126, 5, 205, 0.4)" class="triangle-float1"></path><path d="M370.9 466.28 a223.9 223.9 0 1 0 447.8 0 a223.9 223.9 0 1 0 -447.8 0z" fill="rgba(126, 5, 205, 0.4)" class="triangle-float2"></path><path d="M568.28 120.28 a269.53 269.53 0 1 0 539.06 0 a269.53 269.53 0 1 0 -539.06 0z" fill="rgba(126, 5, 205, 0.4)" class="triangle-float3"></path><path d="M1096.04 20.89 a299.62 299.62 0 1 0 599.24 0 a299.62 299.62 0 1 0 -599.24 0z" fill="rgba(126, 5, 205, 0.4)" class="triangle-float2"></path><path d="M491.74 22.54 a303.56 303.56 0 1 0 607.12 0 a303.56 303.56 0 1 0 -607.12 0z" fill="rgba(126, 5, 205, 0.4)" class="triangle-float2"></path><path d="M517.34 530.34 a175.69 175.69 0 1 0 351.38 0 a175.69 175.69 0 1 0 -351.38 0z" fill="rgba(126, 5, 205, 0.4)" class="triangle-float3"></path></g><defs><mask id="SvgjsMask1029"><rect width="1440" height="1000" fill="#ffffff"></rect></mask><style>
            @keyframes float1 {
                0%{transform: translate(0, 0)}
                50%{transform: translate(-10px, 0)}
                100%{transform: translate(0, 0)}
            }

            .triangle-float1 {
                animation: float1 5s infinite;
            }

            @keyframes float2 {
                0%{transform: translate(0, 0)}
                50%{transform: translate(-5px, -5px)}
                100%{transform: translate(0, 0)}
            }

            .triangle-float2 {
                animation: float2 4s infinite;
            }

            @keyframes float3 {
                0%{transform: translate(0, 0)}
                50%{transform: translate(0, -10px)}
                100%{transform: translate(0, 0)}
            }

            .triangle-float3 {
                animation: float3 6s infinite;
            }
        </style></defs></svg>